HIERARCHY
ROOT Hips
{
 OFFSET 0.000000 0.000000 0.000000
 CHANNELS 6 Xposition Yposition Zposition Yrotation Xrotation Zrotation
 JOINT Chest
 {
  OFFSET 0.000000 9.585900 0.002600
  CHANNELS 3 Yrotation Xrotation Zrotation
  JOINT Chest2
  {
   OFFSET 0.000000 9.601200 -0.005300
   CHANNELS 3 Yrotation Xrotation Zrotation
   JOINT Chest3
   {
    OFFSET 0.000000 9.561800 0.000000
    CHANNELS 3 Yrotation Xrotation Zrotation
    JOINT Chest4
    {
     OFFSET 0.000000 9.552100 0.000000
     CHANNELS 3 Yrotation Xrotation Zrotation
     JOINT Neck
     {
      OFFSET 0.000000 14.453000 0.000000
      CHANNELS 3 Yrotation Xrotation Zrotation
      JOINT Head
      {
       OFFSET 0.000000 8.936500 -0.011300
       CHANNELS 3 Yrotation Xrotation Zrotation
       End Site
       {
        OFFSET 0.000000 17.073600 -0.006000
       }
      }
     }
     JOINT RightCollar
     {
      OFFSET -2.921100 9.558500 0.000000
      CHANNELS 3 Yrotation Xrotation Zrotation
      JOINT RightShoulder
      {
       OFFSET -13.519700 0.000000 0.000000
       CHANNELS 3 Yrotation Xrotation Zrotation
       JOINT RightElbow
       {
        OFFSET 0.000000 -29.696600 0.000000
        CHANNELS 3 Yrotation Xrotation Zrotation
        JOINT RightWrist
        {
         OFFSET 0.000000 -24.004700 0.000000
         CHANNELS 3 Yrotation Xrotation Zrotation
         End Site
         {
          OFFSET 0.000000 -17.728500 0.000000
         }
        }
       }
      }
     }
     JOINT LeftCollar
     {
      OFFSET 2.921100 9.558500 0.000000
      CHANNELS 3 Yrotation Xrotation Zrotation
      JOINT LeftShoulder
      {
       OFFSET 13.519700 0.000000 0.000000
       CHANNELS 3 Yrotation Xrotation Zrotation
       JOINT LeftElbow
       {
        OFFSET 0.000000 -29.696600 0.000000
        CHANNELS 3 Yrotation Xrotation Zrotation
        JOINT LeftWrist
        {
         OFFSET 0.000000 -24.004700 0.000000
         CHANNELS 3 Yrotation Xrotation Zrotation
         End Site
         {
          OFFSET 0.000000 -17.728500 0.000000
         }
        }
       }
      }
     }
    }
   }
  }
 }
 JOINT RightHip
 {
  OFFSET -7.771700 -0.012900 -0.001300
  CHANNELS 3 Yrotation Xrotation Zrotation
  JOINT RightKnee
  {
   OFFSET 0.000000 -40.869800 0.001200
   CHANNELS 3 Yrotation Xrotation Zrotation
   JOINT RightAnkle
   {
    OFFSET 0.000000 -39.717900 0.002100
    CHANNELS 3 Yrotation Xrotation Zrotation
    JOINT RightToe
    {
     OFFSET 0.000000 -4.965400 11.033500
     CHANNELS 3 Yrotation Xrotation Zrotation
     End Site
     {
      OFFSET 0.000000 -1.423100 5.872300
     }
    }
   }
  }
 }
 JOINT LeftHip
 {
  OFFSET 7.771700 -0.012900 -0.001300
  CHANNELS 3 Yrotation Xrotation Zrotation
  JOINT LeftKnee
  {
   OFFSET 0.000000 -40.869800 0.001200
   CHANNELS 3 Yrotation Xrotation Zrotation
   JOINT LeftAnkle
   {
    OFFSET 0.000000 -39.717900 0.002100
    CHANNELS 3 Yrotation Xrotation Zrotation
    JOINT LeftToe
    {
     OFFSET 0.000000 -4.965400 11.033500
     CHANNELS 3 Yrotation Xrotation Zrotation
     End Site
     {
      OFFSET 0.000000 -1.423100 5.872300
     }
    }
   }
  }
 }
}
MOTION
Frames: 13
Frame Time: 0.008333
-219.059427 57.839935 25.316859 174.564567 -47.708606 -4.201458 5.463054 22.298283 2.654801 2.925823 12.804557 1.332230 3.719653 15.963398 1.766509 2.918972 12.780578 1.320390 1.231876 15.327035 5.506772 0.276823 -7.215191 9.835485 3.243238 3.245891 1.329908 -0.935158 -18.060343 -7.740928 -82.618587 -59.569646 126.012338 10.563676 9.712522 4.600840 -9.810417 -2.209991 -0.991512 -1.318379 -17.945647 11.587321 28.069188 -29.877602 -77.389825 0.920209 -20.800073 21.786046 4.536690 -24.300486 -1.347572 -39.781430 73.147143 -41.988093 4.993829 -12.403204 11.455897 0.229658 -0.079394 0.136781 -8.084988 -23.058042 9.259691 60.652282 77.453258 60.661523 6.239497 -15.100194 -19.701493 -0.101029 0.156817 -0.048425
-219.044918 57.844548 25.319556 174.552787 -47.748295 -4.217990 5.483191 22.309300 2.675604 2.925892 12.787011 1.327313 3.726759 15.987708 1.780325 2.927006 12.771062 1.321025 1.193944 15.347199 5.490961 0.260163 -7.203378 9.833221 3.230743 3.241614 1.344455 -0.892375 -18.063251 -7.782634 -82.627934 -59.554930 126.008743 10.593370 9.691831 4.585022 -9.834482 -2.210804 -1.003030 -1.343538 -17.933072 11.600676 28.099568 -29.879778 -77.374551 0.879980 -20.815917 21.774806 4.458744 -24.263972 -1.313732 -39.811308 73.134062 -42.009350 5.026561 -12.431353 11.391454 0.251200 -0.071446 0.136462 -8.060423 -23.020239 9.293492 60.707024 77.452124 60.716702 6.225732 -15.101709 -19.680143 -0.123412 0.152764 -0.059127
-219.031590 57.847844 25.322778 174.550831 -47.777962 -4.234451 5.494596 22.323832 2.693195 2.927212 12.788893 1.328836 3.729850 15.982611 1.781091 2.929038 12.772731 1.323176 1.160796 15.353550 5.469988 0.242148 -7.190805 9.832556 3.221134 3.193254 1.356894 -0.852890 -18.031215 -7.817893 -82.638527 -59.546140 126.010425 10.624586 9.664170 4.559160 -9.849794 -2.218669 -1.009516 -1.367938 -17.927409 11.610052 28.127510 -29.881660 -77.361370 0.835412 -20.826452 21.766062 4.377161 -24.234146 -1.284115 -39.799861 73.127535 -42.005606 5.043333 -12.473853 11.353973 0.261888 -0.050977 0.124065 -8.031715 -22.994963 9.322285 60.672716 77.469642 60.697812 6.214174 -15.096619 -19.669272 -0.127078 0.143297 -0.058867
-219.022356 57.851744 25.324248 174.544857 -47.814510 -4.223647 5.499033 22.346813 2.684978 2.928745 12.790820 1.330133 3.732496 15.976079 1.779277 2.932051 12.772969 1.331015 1.128130 15.360339 5.446292 0.132610 -7.174963 9.765291 3.215476 3.184763 1.362861 -0.811369 -18.041523 -7.848344 -82.734696 -59.558074 126.158680 10.598956 9.674998 4.451695 -9.864895 -2.219897 -1.013959 -1.371891 -17.917954 11.614065 28.168775 -29.930746 -77.362569 0.825414 -20.803739 21.748361 4.311995 -24.195834 -1.278233 -39.735635 73.130441 -41.974271 5.070833 -12.506203 11.339376 0.238295 -0.046641 0.107262 -8.016197 -22.960178 9.313738 60.680117 77.469486 60.700901 6.232536 -15.082933 -19.668209 -0.150685 0.139020 -0.059937
-219.009327 57.854413 25.327233 174.565376 -47.838245 -4.258644 5.498595 22.344563 2.706435 2.929429 12.793174 1.332978 3.733471 15.979032 1.782879 2.929875 12.771199 1.335255 1.096084 15.367709 5.420407 0.063275 -7.159845 9.715799 3.213244 3.196639 1.363578 -0.767713 -18.076633 -7.874397 -82.786125 -59.558189 126.231186 10.597476 9.676899 4.373248 -9.877327 -2.212069 -1.019510 -1.372094 -17.914497 11.615637 28.188967 -29.957609 -77.354534 0.827258 -20.791000 21.734992 4.219576 -24.170008 -1.246442 -39.668570 73.133980 -41.938834 5.146031 -12.570897 11.337528 0.171923 -0.021415 0.070753 -8.021820 -22.935288 9.341684 60.639638 77.481992 60.667977 6.202047 -15.062094 -19.669949 -0.123802 0.112628 -0.047374
-218.997642 57.860412 25.326587 174.564920 -47.890348 -4.271955 5.512982 22.367069 2.725790 2.928669 12.794874 1.335987 3.732788 15.981207 1.786593 2.927683 12.783693 1.336532 1.065210 15.363896 5.394286 0.016881 -7.145640 9.676170 3.213043 3.170391 1.368875 -0.720527 -18.088961 -7.902081 -82.806942 -59.557882 126.259953 10.606440 9.671283 4.307297 -9.881247 -2.205217 -1.022308 -1.392690 -17.926308 11.624250 28.220171 -29.983760 -77.342581 0.778930 -20.781693 21.724969 4.149956 -24.115536 -1.228472 -39.640408 73.137192 -41.889099 5.115197 -12.575270 11.253864 0.248376 -0.035121 0.098981 -7.992348 -22.881609 9.364466 60.553173 77.502440 60.594234 6.219683 -15.074232 -19.659826 -0.131535 0.130504 -0.053479
-218.988615 57.863971 25.327356 174.575659 -47.923147 -4.283259 5.509087 22.375073 2.732963 2.927872 12.795709 1.337024 3.731755 15.982281 1.787964 2.927893 12.795716 1.337033 1.035748 15.359061 5.367489 -0.026529 -7.133249 9.633922 3.206398 3.113880 1.388936 -0.659604 -18.073311 -7.941667 -82.815638 -59.560899 126.276245 10.614259 9.663461 4.238225 -9.896444 -2.210541 -1.024995 -1.385442 -17.927206 11.627500 28.228863 -30.006501 -77.327066 0.722312 -20.776076 21.730351 4.082345 -24.080208 -1.221885 -39.583985 73.153318 -41.833604 5.121849 -12.620907 11.211574 0.256799 -0.025447 0.098743 -7.983193 -22.849301 9.371397 60.525393 77.514779 60.567655 6.220373 -15.075649 -19.649723 -0.143959 0.132415 -0.057008
-218.983314 57.867171 25.327458 174.578200 -47.955032 -4.270872 5.503904 22.383108 2.718317 2.927293 12.796731 1.339497 3.730623 15.971434 1.791279 2.927601 12.808746 1.339716 1.006807 15.362709 5.338518 -0.068045 -7.122118 9.588716 3.202156 3.085994 1.403608 -0.601483 -18.078056 -7.973828 -82.808236 -59.565706 126.279513 10.609046 9.663585 4.164632 -9.908151 -2.202968 -1.028198 -1.375175 -17.932539 11.627758 28.230137 -30.020403 -77.312963 0.678520 -20.771702 21.746532 4.031786 -24.045625 -1.232669 -39.505196 73.170232 -41.773762 5.136908 -12.662964 11.192768 0.243399 -0.013757 0.089672 -7.960621 -22.820113 9.361492 60.519962 77.524315 60.548243 6.225187 -15.083086 -19.622081 -0.169935 0.139641 -0.067582
-218.978208 57.869841 25.327796 174.579841 -47.983101 -4.261457 5.505176 22.385164 2.711013 2.922439 12.778059 1.341958 3.730202 16.004756 1.793495 2.924943 12.797868 1.341289 0.986792 15.370420 5.317751 -0.114183 -7.118150 9.536506 3.201539 3.069239 1.416382 -0.570849 -18.066449 -7.995136 -82.820356 -59.574246 126.333386 10.583654 9.679988 4.089828 -9.937837 -2.208488 -1.024735 -1.350096 -17.921753 11.623903 28.234540 -30.014582 -77.303249 0.614288 -20.770497 21.775588 4.008947 -24.016869 -1.239136 -39.469917 73.177872 -41.750926 5.158590 -12.688128 11.189791 0.220636 -0.002895 0.077914 -7.938327 -22.792420 9.353918 60.490790 77.527219 60.516049 6.217489 -15.087117 -19.608760 -0.174724 0.144475 -0.069519
-218.972158 57.873038 25.327692 174.588204 -48.015486 -4.266222 5.498485 22.371025 2.712826 2.923456 12.818428 1.343007 3.726945 15.984605 1.797198 2.922850 12.776230 1.348386 0.979670 15.413896 5.300564 -0.169206 -7.128885 9.473762 3.200620 3.078049 1.421490 -0.539048 -18.055257 -8.016900 -82.821388 -59.582899 126.378164 10.596376 9.671042 4.007418 -9.948569 -2.177687 -1.035678 -1.348296 -17.924090 11.628090 28.252686 -30.040875 -77.284890 0.599055 -20.750074 21.789044 3.978046 -23.984945 -1.239563 -39.452126 73.194463 -41.720424 5.157008 -12.718964 11.154189 0.236267 -0.009015 0.085423 -7.927553 -22.757775 9.354514 60.470771 77.524212 60.489879 6.217316 -15.089934 -19.603187 -0.188032 0.152151 -0.067453
-218.967348 57.876646 25.326888 174.607751 -48.052483 -4.274114 5.486676 22.402466 2.710332 2.922364 12.797491 1.346261 3.724076 15.956286 1.809261 2.920360 12.826249 1.337275 0.952516 15.397348 5.273574 -0.205238 -7.121861 9.423797 3.197338 3.054284 1.431260 -0.450953 -18.131123 -8.039057 -82.710923 -59.595950 126.244827 10.606772 9.649242 3.932454 -9.960891 -2.188196 -1.027566 -1.344324 -17.925722 11.632274 28.258413 -30.107125 -77.240795 0.658904 -20.728485 21.769656 3.922925 -23.947929 -1.253321 -39.353840 73.246265 -41.601253 5.114830 -12.770977 11.087500 0.264064 -0.002681 0.101295 -7.929164 -22.719782 9.345387 60.469457 77.517698 60.480456 6.219006 -15.087210 -19.593361 -0.190327 0.156444 -0.076895
-218.963712 57.878123 25.327769 174.614663 -48.075299 -4.267791 5.475743 22.400683 2.705366 2.920165 12.797193 1.348217 3.729823 15.953329 1.814626 2.910031 12.828429 1.338663 0.926326 15.400953 5.239705 -0.241285 -7.114210 9.370866 3.197611 3.072952 1.425047 -0.386755 -18.197313 -8.047803 -82.633370 -59.614815 126.164452 10.623648 9.631628 3.854851 -9.970202 -2.181469 -1.032249 -1.340705 -17.924436 11.637926 28.255878 -30.132665 -77.209939 0.706309 -20.726860 21.748738 3.852406 -23.923634 -1.263629 -39.200137 73.282174 -41.476349 5.128186 -12.816418 11.050247 0.253177 0.000720 0.102376 -7.911251 -22.697821 9.341933 60.448059 77.514259 60.450528 6.201376 -15.091286 -19.577637 -0.184154 0.161548 -0.078425
-218.959920 57.879025 25.329179 174.619782 -48.096178 -4.261296 5.478638 22.355747 2.718529 2.914592 12.816351 1.348929 3.724859 15.968793 1.816724 2.915176 12.808582 1.352046 0.886119 15.429423 5.197190 -0.284042 -7.108044 9.319998 3.177868 3.087079 1.422770 -0.325553 -18.216833 -8.066340 -82.573745 -59.633794 126.092722 10.689277 9.602955 3.783768 -9.994834 -2.148306 -1.051977 -1.337579 -17.921773 11.648940 28.245463 -30.173710 -77.172124 0.740335 -20.725905 21.741079 3.810545 -23.903931 -1.271757 -39.107368 73.310532 -41.391505 5.115220 -12.852887 11.016764 0.247943 0.002386 0.105758 -7.896362 -22.678448 9.343559 60.440078 77.508755 60.425788 6.187949 -15.093053 -19.563192 -0.190513 0.167585 -0.077110
